# xmcd
#
# Track frame offsets:
#  150
#  13254
#  25943
#  38659
#  52387
#  64078
#  76519
#  89125
#  96569
#  107966
#  120279
#  132076
#  142485
#  153994
#  168549
#  179351
#  191669
#  204675
#  216069
#  229175
#
# Disc length: 3223 seconds
#
# Revision: 0
# Processed by: cddbd v1.5.1PL2 Copyright (c) Steve Scherf et al.
# Submitted via: Collectorz.com_Music_Collector 6.10
#
DISCID=280c9514
DTITLE=Various Artist - Country Classics The Best Of [CD1)
DYEAR=2003
DGENRE=Country
TTITLE0=Hank Williams - Jambalaya
TTITLE1=Tex Ritter - High Noon
TTITLE2=Hank Snow - I'm Movin' On
TTITLE3=Red Foley , Ernest Tubb with the Sunshine Trio - Goodnight Irene
TTITLE4=Tennessee Ernie Ford - The Shotgun Boogie
TTITLE5=Pee Wee King - Slow Poke
TTITLE6=Red Foley - Chattanoogie Shoe Shine Boy
TTITLE7=Tex Williams and his Western Caravan - Steel Guitar Rag
TTITLE8=Eddy Arnold - I Wanna Play House With You
TTITLE9=Jimmy Waxely - I Love You So Much It Hurts
TTITLE10=Gene O'Quin - I'm Gonna Find Another Sweetheart
TTITLE11=Roy Hogsed - Roll `em Dice
TTITLE12=Ramblin Jimmie Dolan - Hot Rod Race
TTITLE13=Tennessee Ernie Ford - The Cry Of The Wild Goose
TTITLE14=Hank Williams - Why Don't You Love Me
TTITLE15=Leon Payne - I Love You Because
TTITLE16=Eddy Arnold - Take Me In Your Arms And Hold Me
TTITLE17=Tex Ritter - Have I Told You Lately That I Love You
TTITLE18=Tex Williams - Smoke Smoke Smoke That Cigarette
TTITLE19=Jack Guthrie - Oklahoma Hills
EXTD=
EXTT0=
EXTT1=
EXTT2=
EXTT3=
EXTT4=
EXTT5=
EXTT6=
EXTT7=
EXTT8=
EXTT9=
EXTT10=
EXTT11=
EXTT12=
EXTT13=
EXTT14=
EXTT15=
EXTT16=
EXTT17=
EXTT18=
EXTT19=
PLAYORDER=
